{
  "header": {
    "keySignatures": [
      {
        "key": "F",
        "scale": "major",
        "ticks": 0
      }
    ],
    "meta": [],
    "name": "",
    "ppq": 256,
    "tempos": [
      {
        "bpm": 16,
        "ticks": 4551
      },
      {
        "bpm": 100,
        "ticks": 4583
      },
      {
        "bpm": 16,
        "ticks": 4782
      },
      {
        "bpm": 100,
        "ticks": 4814
      }
    ],
    "timeSignatures": [
      {
        "ticks": 0,
        "timeSignature": [
          4,
          4
        ],
        "measures": 0
      },
      {
        "ticks": 0,
        "timeSignature": [
          3,
          4
        ],
        "measures": 0
      }
    ]
  },
  "tracks": [
    {
      "channel": 0,
      "controlChanges": {
        "0": [
          {
            "number": 0,
            "ticks": 0,
            "time": 0,
            "value": 0
          }
        ],
        "10": [
          {
            "number": 10,
            "ticks": 0,
            "time": 0,
            "value": 0.5748031496062992
          },
          {
            "number": 10,
            "ticks": 0,
            "time": 0,
            "value": 0.5748031496062992
          }
        ],
        "32": [
          {
            "number": 32,
            "ticks": 0,
            "time": 0,
            "value": 0
          }
        ],
        "91": [
          {
            "number": 91,
            "ticks": 0,
            "time": 0,
            "value": 0.3937007874015748
          },
          {
            "number": 91,
            "ticks": 0,
            "time": 0,
            "value": 0.3937007874015748
          }
        ]
      },
      "pitchBends": [],
      "instrument": {
        "family": "piano",
        "name": "acoustic grand piano",
        "number": 0
      },
      "name": "",
      "notes": [
        {
          "duration": 0.337890625,
          "durationTicks": 173,
          "midi": 60,
          "name": "C4",
          "ticks": 0,
          "time": 0,
          "velocity": 0.5511811023622047
        },
        {
          "duration": 0.11328125,
          "durationTicks": 58,
          "midi": 60,
          "name": "C4",
          "ticks": 192,
          "time": 0.375,
          "velocity": 0.5669291338582677
        },
        {
          "duration": 0.451171875,
          "durationTicks": 231,
          "midi": 62,
          "name": "D4",
          "ticks": 256,
          "time": 0.5,
          "velocity": 0.6535433070866141
        },
        {
          "duration": 1.40234375,
          "durationTicks": 718,
          "midi": 53,
          "name": "F3",
          "ticks": 256,
          "time": 0.5,
          "velocity": 0.5748031496062992
        },
        {
          "duration": 1.40234375,
          "durationTicks": 718,
          "midi": 57,
          "name": "A3",
          "ticks": 256,
          "time": 0.5,
          "velocity": 0.5669291338582677
        },
        {
          "duration": 0.451171875,
          "durationTicks": 231,
          "midi": 60,
          "name": "C4",
          "ticks": 512,
          "time": 1,
          "velocity": 0.5669291338582677
        },
        {
          "duration": 0.451171875,
          "durationTicks": 231,
          "midi": 65,
          "name": "F4",
          "ticks": 768,
          "time": 1.5,
          "velocity": 0.6692913385826772
        },
        {
          "duration": 0.90234375,
          "durationTicks": 462,
          "midi": 64,
          "name": "E4",
          "ticks": 1024,
          "time": 2,
          "velocity": 0.6220472440944882
        },
        {
          "duration": 1.40234375,
          "durationTicks": 718,
          "midi": 48,
          "name": "C3",
          "ticks": 1024,
          "time": 2,
          "velocity": 0.6377952755905512
        },
        {
          "duration": 1.40234375,
          "durationTicks": 718,
          "midi": 58,
          "name": "A#3",
          "ticks": 1024,
          "time": 2,
          "velocity": 0.6377952755905512
        },
        {
          "duration": 0.337890625,
          "durationTicks": 173,
          "midi": 60,
          "name": "C4",
          "ticks": 1536,
          "time": 3,
          "velocity": 0.5590551181102362
        },
        {
          "duration": 0.11328125,
          "durationTicks": 58,
          "midi": 60,
          "name": "C4",
          "ticks": 1728,
          "time": 3.375,
          "velocity": 0.5669291338582677
        },
        {
          "duration": 0.451171875,
          "durationTicks": 231,
          "midi": 62,
          "name": "D4",
          "ticks": 1792,
          "time": 3.5,
          "velocity": 0.6692913385826772
        },
        {
          "duration": 1.40234375,
          "durationTicks": 718,
          "midi": 48,
          "name": "C3",
          "ticks": 1792,
          "time": 3.5,
          "velocity": 0.6299212598425197
        },
        {
          "duration": 1.40234375,
          "durationTicks": 718,
          "midi": 58,
          "name": "A#3",
          "ticks": 1792,
          "time": 3.5,
          "velocity": 0.6220472440944882
        },
        {
          "duration": 0.451171875,
          "durationTicks": 231,
          "midi": 60,
          "name": "C4",
          "ticks": 2048,
          "time": 4,
          "velocity": 0.5433070866141733
        },
        {
          "duration": 0.451171875,
          "durationTicks": 231,
          "midi": 67,
          "name": "G4",
          "ticks": 2304,
          "time": 4.5,
          "velocity": 0.7086614173228346
        },
        {
          "duration": 0.90234375,
          "durationTicks": 462,
          "midi": 65,
          "name": "F4",
          "ticks": 2560,
          "time": 5,
          "velocity": 0.5905511811023622
        },
        {
          "duration": 1.40234375,
          "durationTicks": 718,
          "midi": 53,
          "name": "F3",
          "ticks": 2560,
          "time": 5,
          "velocity": 0.5748031496062992
        },
        {
          "duration": 1.40234375,
          "durationTicks": 718,
          "midi": 57,
          "name": "A3",
          "ticks": 2560,
          "time": 5,
          "velocity": 0.5748031496062992
        },
        {
          "duration": 0.337890625,
          "durationTicks": 173,
          "midi": 60,
          "name": "C4",
          "ticks": 3072,
          "time": 6,
          "velocity": 0.5433070866141733
        },
        {
          "duration": 0.11328125,
          "durationTicks": 58,
          "midi": 60,
          "name": "C4",
          "ticks": 3264,
          "time": 6.375,
          "velocity": 0.5826771653543307
        },
        {
          "duration": 0.451171875,
          "durationTicks": 231,
          "midi": 72,
          "name": "C5",
          "ticks": 3328,
          "time": 6.5,
          "velocity": 0.7795275590551181
        },
        {
          "duration": 1.40234375,
          "durationTicks": 718,
          "midi": 53,
          "name": "F3",
          "ticks": 3328,
          "time": 6.5,
          "velocity": 0.6062992125984252
        },
        {
          "duration": 1.40234375,
          "durationTicks": 718,
          "midi": 57,
          "name": "A3",
          "ticks": 3328,
          "time": 6.5,
          "velocity": 0.6220472440944882
        },
        {
          "duration": 0.451171875,
          "durationTicks": 231,
          "midi": 69,
          "name": "A4",
          "ticks": 3584,
          "time": 7,
          "velocity": 0.5826771653543307
        },
        {
          "duration": 0.451171875,
          "durationTicks": 231,
          "midi": 65,
          "name": "F4",
          "ticks": 3840,
          "time": 7.5,
          "velocity": 0.5196850393700787
        },
        {
          "duration": 0.451171875,
          "durationTicks": 231,
          "midi": 64,
          "name": "E4",
          "ticks": 4096,
          "time": 8,
          "velocity": 0.5748031496062992
        },
        {
          "duration": 60.068945312500006,
          "durationTicks": 718,
          "midi": 53,
          "name": "F3",
          "ticks": 4096,
          "time": 8,
          "velocity": 0.6377952755905512
        },
        {
          "duration": 60.068945312500006,
          "durationTicks": 718,
          "midi": 58,
          "name": "A#3",
          "ticks": 4096,
          "time": 8,
          "velocity": 0.6614173228346457
        },
        {
          "duration": 58.6337890625,
          "durationTicks": 231,
          "midi": 62,
          "name": "D4",
          "ticks": 4352,
          "time": 8.5,
          "velocity": 0.5433070866141733
        },
        {
          "duration": 0.40546874999999716,
          "durationTicks": 173,
          "midi": 70,
          "name": "A#4",
          "ticks": 4608,
          "time": 67.1923828125,
          "velocity": 0.7007874015748031
        },
        {
          "duration": 0.3082031250000057,
          "durationTicks": 58,
          "midi": 70,
          "name": "A#4",
          "ticks": 4800,
          "time": 67.8638671875,
          "velocity": 0.6141732283464567
        },
        {
          "duration": 0.5414062499999943,
          "durationTicks": 231,
          "midi": 69,
          "name": "A4",
          "ticks": 4864,
          "time": 68.1861328125,
          "velocity": 0.5984251968503937
        },
        {
          "duration": 1.0828125000000028,
          "durationTicks": 462,
          "midi": 53,
          "name": "F3",
          "ticks": 4864,
          "time": 68.1861328125,
          "velocity": 0.5905511811023622
        },
        {
          "duration": 1.0828125000000028,
          "durationTicks": 462,
          "midi": 57,
          "name": "A3",
          "ticks": 4864,
          "time": 68.1861328125,
          "velocity": 0.5905511811023622
        },
        {
          "duration": 0.5414062500000085,
          "durationTicks": 231,
          "midi": 65,
          "name": "F4",
          "ticks": 5120,
          "time": 68.7861328125,
          "velocity": 0.5118110236220472
        },
        {
          "duration": 0.5414062499999943,
          "durationTicks": 231,
          "midi": 67,
          "name": "G4",
          "ticks": 5376,
          "time": 69.38613281250001,
          "velocity": 0.6062992125984252
        },
        {
          "duration": 0.5414062499999943,
          "durationTicks": 231,
          "midi": 48,
          "name": "C3",
          "ticks": 5376,
          "time": 69.38613281250001,
          "velocity": 0.6141732283464567
        },
        {
          "duration": 0.5414062499999943,
          "durationTicks": 231,
          "midi": 58,
          "name": "A#3",
          "ticks": 5376,
          "time": 69.38613281250001,
          "velocity": 0.6220472440944882
        },
        {
          "duration": 1.6828124999999972,
          "durationTicks": 718,
          "midi": 65,
          "name": "F4",
          "ticks": 5632,
          "time": 69.9861328125,
          "velocity": 0.5748031496062992
        },
        {
          "duration": 1.6828124999999972,
          "durationTicks": 718,
          "midi": 53,
          "name": "F3",
          "ticks": 5632,
          "time": 69.9861328125,
          "velocity": 0.5984251968503937
        },
        {
          "duration": 1.6828124999999972,
          "durationTicks": 718,
          "midi": 57,
          "name": "A3",
          "ticks": 5632,
          "time": 69.9861328125,
          "velocity": 0.5984251968503937
        }
      ]
    }
  ]
}